<svg width="73" height="37" viewBox="0 0 73 37" fill="none" xmlns="http://www.w3.org/2000/svg">
<path d="M1.9998 31.9996C1.50002 34.5 6.5 37 7.9998 33C9.4996 28.9999 12.4998 28.9999 13.9998 32.4995C15.4998 35.9992 18.9998 34.9994 19.4998 31.9996C19.9998 28.9998 24.9998 27 25.9998 33.9996C26.3276 36.294 29.9998 36.5 30.9998 33.9996C31.9998 28 35.9998 28 37.4998 33.4996C38.4998 36.5 41.4998 36 42.4998 33.4996C42.9998 28.5 47.4998 27 49.4998 33.4996C50.4998 35.9999 53.5381 35.4999 53.9998 33.4996C55.4998 26.9999 59.4998 27.5 60.9998 33.4996C61.4998 36 65.7391 35.6074 65.9998 33C66.4998 28 70.9998 28 71.9998 32.4995" stroke="#FEC751" stroke-width="2"/>
<path d="M4.00004 19.4999C3.5004 20.4999 3.24923 24.4999 3.74923 24.9999C3.74923 24.9999 70.5006 25.4999 71.0006 24.9999C71.5006 24.4999 71.1827 20.9999 70.5009 19.4999C65.5009 8.4999 52.0009 4.00002 45.0009 2.50002C42.5 1.5 33.5 1.45675 29.5009 2.50002C6.5009 8.50013 4.49969 18.4999 4.00004 19.4999Z" stroke="#FEC751" stroke-width="2"/>
<ellipse cx="28.5" cy="14.5" rx="3.5" ry="1.5" fill="#FEC751"/>
<ellipse cx="46.5" cy="14.5" rx="3.5" ry="1.5" fill="#FEC751"/>
<ellipse cx="38" cy="9" rx="4" ry="2" fill="#FEC751"/>
</svg>
