<svg width="896" height="748" viewBox="0 0 896 748" fill="none" xmlns="http://www.w3.org/2000/svg">
<g clip-path="url(#clip0_747_250)">
<path d="M48.6341 710.524C61.0625 733.573 87.4401 743.468 87.4401 743.468C87.4401 743.468 93.6672 715.993 81.2388 692.943C68.8104 669.894 42.4328 660 42.4328 660C42.4328 660 36.2057 687.475 48.6341 710.524Z" fill="#2F2E41"/>
<path d="M57.1765 702.941C79.6149 716.441 88.2567 743.255 88.2567 743.255C88.2567 743.255 60.5186 748.182 38.0802 734.682C15.6417 721.183 7 694.369 7 694.369C7 694.369 34.7381 689.442 57.1765 702.941Z" fill="#FFD369"/>
<g filter="url(#filter0_d_747_250)">
<path d="M362.06 702.184H125.274V700.481H360.356V617.861H145.18L134.727 596.084L136.263 595.347L146.252 616.157H362.06V702.184Z" fill="#2F2E41"/>
</g>
<g filter="url(#filter1_d_747_250)">
<path d="M156.789 743.92C166.667 743.92 174.675 735.912 174.675 726.033C174.675 716.154 166.667 708.146 156.789 708.146C146.91 708.146 138.902 716.154 138.902 726.033C138.902 735.912 146.91 743.92 156.789 743.92Z" fill="#3F3D56"/>
</g>
<g filter="url(#filter2_d_747_250)">
<path d="M333.101 743.92C342.979 743.92 350.987 735.912 350.987 726.033C350.987 716.154 342.979 708.146 333.101 708.146C323.222 708.146 315.214 716.154 315.214 726.033C315.214 735.912 323.222 743.92 333.101 743.92Z" fill="#3F3D56"/>
</g>
<g filter="url(#filter3_d_747_250)">
<path d="M540.927 357.226C547.043 357.226 552 352.268 552 346.153C552 340.038 547.043 335.08 540.927 335.08C534.812 335.08 529.854 340.038 529.854 346.153C529.854 352.268 534.812 357.226 540.927 357.226Z" fill="#3F3D56"/>
</g>
<g filter="url(#filter4_d_747_250)">
<path d="M387.385 589.753H121.237L63.6484 401.517H446.693L446.344 402.624L387.385 589.753ZM122.497 588.05H386.136L444.37 403.22H65.9508L122.497 588.05Z" fill="#2F2E41"/>
</g>
<g filter="url(#filter5_d_747_250)">
<path d="M366.61 579.958H132.842L82.26 413.015H418.701L418.395 413.998L366.61 579.958Z" fill="#F2F2F2"/>
</g>
<g filter="url(#filter6_d_747_250)">
<path d="M451.465 384.7L449.818 384.263L461.059 341.894H526.448V343.598H462.37L451.465 384.7Z" fill="#2F2E41"/>
</g>
<g filter="url(#filter7_d_747_250)">
<path d="M427.551 458.584H82.2583V460.287H427.551V458.584Z" fill="#2F2E41"/>
</g>
<g filter="url(#filter8_d_747_250)">
<path d="M407.778 521.344H101.459V523.047H407.778V521.344Z" fill="#2F2E41"/>
</g>
<g filter="url(#filter9_d_747_250)">
<path d="M256.017 402.368H254.314V588.901H256.017V402.368Z" fill="#2F2E41"/>
</g>
<g filter="url(#filter10_d_747_250)">
<path d="M332.286 402.315L320.058 588.843L321.758 588.955L333.986 402.426L332.286 402.315Z" fill="#2F2E41"/>
</g>
<g filter="url(#filter11_d_747_250)">
<path d="M178.081 402.313L176.38 402.424L188.538 588.957L190.238 588.846L178.081 402.313Z" fill="#2F2E41"/>
</g>
<g filter="url(#filter12_d_747_250)">
<path d="M595.411 61.876C595.411 61.876 610.029 103.482 601.033 109.883C592.037 116.284 631.394 168.559 631.394 168.559L678.623 155.757L652.76 112.017C652.76 112.017 649.386 68.277 649.386 61.876C649.386 55.475 595.411 61.876 595.411 61.876Z" fill="#A0616A"/>
</g>
<g opacity="0.1" filter="url(#filter13_d_747_250)">
<path d="M595.411 61.876C595.411 61.876 610.029 103.482 601.033 109.883C592.037 116.284 631.394 168.559 631.394 168.559L678.623 155.757L652.76 112.017C652.76 112.017 649.386 68.277 649.386 61.876C649.386 55.475 595.411 61.876 595.411 61.876Z" fill="black"/>
</g>
<g filter="url(#filter14_d_747_250)">
<path d="M570.874 358.454C570.874 358.454 566.606 411.795 570.874 439.533C575.141 467.27 581.542 544.082 581.542 544.082C581.542 544.082 581.542 689.171 605.012 691.304C628.482 693.438 645.552 695.572 647.685 687.037C649.819 678.502 637.017 674.235 643.418 669.968C649.819 665.7 651.953 650.765 643.418 633.696C634.883 616.626 643.418 443.8 643.418 443.8L683.957 552.617C683.957 552.617 688.225 642.23 692.492 655.032C696.759 667.834 688.225 691.304 703.16 693.438C718.096 695.572 735.165 682.77 743.7 678.502C752.234 674.235 730.898 674.235 735.165 672.101C739.432 669.968 752.234 663.567 747.967 661.433C743.7 659.299 739.432 556.884 739.432 556.884C739.432 556.884 727.697 338.184 712.762 329.65C697.826 321.115 688.225 335.816 688.225 335.816L570.874 358.454Z" fill="#2F2E41"/>
</g>
<g filter="url(#filter15_d_747_250)">
<path d="M609.279 682.77V699.839C609.279 699.839 590.077 746.238 609.279 746.238C628.482 746.238 643.418 751.047 643.418 744.646V687.037L609.279 682.77Z" fill="#2F2E41"/>
</g>
<g filter="url(#filter16_d_747_250)">
<path d="M735.165 682.739V699.809C735.165 699.809 754.368 746.208 735.165 746.208C715.962 746.208 701.027 751.016 701.027 744.615V687.007L735.165 682.739Z" fill="#2F2E41"/>
</g>
<g filter="url(#filter17_d_747_250)">
<path d="M625.282 92.814C646.493 92.814 663.688 75.6192 663.688 54.4082C663.688 33.1973 646.493 16.0024 625.282 16.0024C604.071 16.0024 586.876 33.1973 586.876 54.4082C586.876 75.6192 604.071 92.814 625.282 92.814Z" fill="#A0616A"/>
</g>
<g filter="url(#filter18_d_747_250)">
<path d="M613.547 125.886C613.547 125.886 624.215 157.89 641.284 151.489L658.353 145.088L688.225 349.919C688.225 349.919 664.754 384.058 630.616 362.721C596.477 341.385 613.547 125.886 613.547 125.886Z" fill="#FFD369"/>
</g>
<g filter="url(#filter19_d_747_250)">
<path d="M643.418 119.485L653.019 99.215C653.019 99.215 709.561 125.886 718.096 134.42C726.631 142.955 726.63 155.757 726.63 155.757L711.695 209.098C711.695 209.098 715.962 326.449 715.962 330.717C715.962 334.984 730.898 358.454 720.23 349.919C709.561 341.385 707.428 332.85 698.893 345.652C690.358 358.454 671.156 373.39 671.156 373.39L643.418 119.485Z" fill="#3F3D56"/>
</g>
<g filter="url(#filter20_d_747_250)">
<path d="M718.096 273.108L711.695 332.85C711.695 332.85 673.289 366.989 681.824 369.122C690.358 371.256 694.626 362.721 694.626 362.721C694.626 362.721 709.561 377.657 718.096 369.122C726.63 360.588 747.967 279.509 747.967 279.509L718.096 273.108Z" fill="#A0616A"/>
</g>
<g filter="url(#filter21_d_747_250)">
<path d="M626.1 0.129871C617.586 -0.174499 608.474 -0.32506 601.296 4.26308C597.993 6.56567 595.096 9.40154 592.724 12.6546C585.732 21.4931 579.691 32.6139 582.288 43.58L585.304 42.4036C585.304 45.3308 584.654 48.2214 583.399 50.8662C583.824 49.6311 585.246 51.6277 584.866 52.877L581.543 63.7777C587.005 61.7753 593.8 65.8296 594.631 71.5874C595.011 58.9262 596.324 44.4078 606.595 36.9941C611.775 33.2554 618.33 32.1141 624.637 31.1006C630.455 30.1656 636.555 29.274 642.128 31.1895C647.7 33.1049 652.446 38.8045 651.183 44.5604C653.752 43.6752 656.626 45.466 657.896 47.8689C659.166 50.2718 659.233 53.1064 659.271 55.824C662.01 57.7598 665.127 53.9158 666.244 50.7529C668.864 43.3285 671.193 35.4255 669.782 27.6799C668.37 19.9343 662.058 12.5322 654.185 12.5059C655.141 11.4562 655.651 10.076 655.607 8.65715L649.118 8.10884C650.765 7.87558 652.28 7.07679 653.403 5.8493C650.798 8.71623 630.313 0.280481 626.1 0.129871Z" fill="#2F2E41"/>
</g>
<g filter="url(#filter22_d_747_250)">
<path d="M624.215 113.084C624.215 113.084 606.846 96.0628 600.595 97.1055C594.344 98.1481 585.809 113.084 585.809 113.084C585.809 113.084 534.602 130.153 536.735 147.222C538.869 164.291 562.339 247.504 562.339 247.504C562.339 247.504 581.542 347.786 564.473 358.454C547.404 369.122 645.552 396.86 647.685 384.058C649.819 371.256 654.086 243.237 647.685 224.034C641.284 204.831 624.215 113.084 624.215 113.084Z" fill="#3F3D56"/>
</g>
<g filter="url(#filter23_d_747_250)">
<path d="M698.893 147.222H725.276C725.276 147.222 743.7 228.301 745.833 236.836C747.967 245.37 752.234 285.91 750.101 285.91C747.967 285.91 705.294 277.375 705.294 283.776L698.893 147.222Z" fill="#3F3D56"/>
</g>
<g filter="url(#filter24_d_747_250)">
<path d="M698 348H597C587.144 302.66 586.32 258.854 597 217H698C681.701 258.101 680.682 301.607 698 348Z" fill="#F2F2F2"/>
</g>
<g filter="url(#filter25_d_747_250)">
<path d="M555.938 292.311L585.809 305.113C585.809 305.113 643.418 313.647 643.418 290.177C643.418 266.707 585.809 279.509 585.809 279.509L566.605 273.369L555.938 292.311Z" fill="#A0616A"/>
</g>
<g filter="url(#filter26_d_747_250)">
<path d="M562.339 134.42L536.735 140.821L517.532 253.905C517.532 253.905 511.131 283.776 521.8 285.91C532.468 288.043 562.339 305.113 562.339 305.113C562.339 305.113 566.606 273.108 575.141 273.108L553.804 256.039L566.606 181.361L562.339 134.42Z" fill="#3F3D56"/>
</g>
<g filter="url(#filter27_d_747_250)">
<path d="M239 200.625C222.312 200.625 205.999 205.574 192.124 214.845C178.248 224.116 167.434 237.294 161.048 252.711C154.662 268.129 152.991 285.094 156.246 301.461C159.502 317.828 167.538 332.862 179.338 344.662C191.138 356.462 206.172 364.498 222.539 367.754C238.906 371.009 255.871 369.338 271.289 362.952C286.706 356.566 299.884 345.752 309.155 331.876C318.427 318.001 323.375 301.688 323.375 285C323.35 262.63 314.453 241.183 298.635 225.365C282.817 209.547 261.37 200.65 239 200.625ZM304.625 285C304.639 299.166 300.046 312.953 291.539 324.281L199.719 232.461C209.472 225.173 221.059 220.743 233.186 219.664C245.313 218.586 257.501 220.902 268.387 226.354C279.273 231.805 288.427 240.178 294.827 250.535C301.227 260.892 304.619 272.825 304.625 285ZM173.375 285C173.361 270.834 177.954 257.047 186.461 245.719L278.281 337.539C268.528 344.827 256.941 349.257 244.814 350.336C232.687 351.414 220.499 349.098 209.613 343.646C198.727 338.195 189.573 329.822 183.173 319.465C176.773 309.108 173.381 297.175 173.375 285Z" fill="#F73C55"/>
</g>
</g>
<defs>
<filter id="filter0_d_747_250" x="121.274" y="595.347" width="244.786" height="114.837" filterUnits="userSpaceOnUse" color-interpolation-filters="sRGB">
<feFlood flood-opacity="0" result="BackgroundImageFix"/>
<feColorMatrix in="SourceAlpha" type="matrix" values="0 0 0 0 0 0 0 0 0 0 0 0 0 0 0 0 0 0 127 0" result="hardAlpha"/>
<feOffset dy="4"/>
<feGaussianBlur stdDeviation="2"/>
<feComposite in2="hardAlpha" operator="out"/>
<feColorMatrix type="matrix" values="0 0 0 0 0 0 0 0 0 0 0 0 0 0 0 0 0 0 0.25 0"/>
<feBlend mode="normal" in2="BackgroundImageFix" result="effect1_dropShadow_747_250"/>
<feBlend mode="normal" in="SourceGraphic" in2="effect1_dropShadow_747_250" result="shape"/>
</filter>
<filter id="filter1_d_747_250" x="134.902" y="708.146" width="43.7734" height="43.7734" filterUnits="userSpaceOnUse" color-interpolation-filters="sRGB">
<feFlood flood-opacity="0" result="BackgroundImageFix"/>
<feColorMatrix in="SourceAlpha" type="matrix" values="0 0 0 0 0 0 0 0 0 0 0 0 0 0 0 0 0 0 127 0" result="hardAlpha"/>
<feOffset dy="4"/>
<feGaussianBlur stdDeviation="2"/>
<feComposite in2="hardAlpha" operator="out"/>
<feColorMatrix type="matrix" values="0 0 0 0 0 0 0 0 0 0 0 0 0 0 0 0 0 0 0.25 0"/>
<feBlend mode="normal" in2="BackgroundImageFix" result="effect1_dropShadow_747_250"/>
<feBlend mode="normal" in="SourceGraphic" in2="effect1_dropShadow_747_250" result="shape"/>
</filter>
<filter id="filter2_d_747_250" x="311.214" y="708.146" width="43.7734" height="43.7734" filterUnits="userSpaceOnUse" color-interpolation-filters="sRGB">
<feFlood flood-opacity="0" result="BackgroundImageFix"/>
<feColorMatrix in="SourceAlpha" type="matrix" values="0 0 0 0 0 0 0 0 0 0 0 0 0 0 0 0 0 0 127 0" result="hardAlpha"/>
<feOffset dy="4"/>
<feGaussianBlur stdDeviation="2"/>
<feComposite in2="hardAlpha" operator="out"/>
<feColorMatrix type="matrix" values="0 0 0 0 0 0 0 0 0 0 0 0 0 0 0 0 0 0 0.25 0"/>
<feBlend mode="normal" in2="BackgroundImageFix" result="effect1_dropShadow_747_250"/>
<feBlend mode="normal" in="SourceGraphic" in2="effect1_dropShadow_747_250" result="shape"/>
</filter>
<filter id="filter3_d_747_250" x="525.854" y="335.08" width="30.1455" height="30.1455" filterUnits="userSpaceOnUse" color-interpolation-filters="sRGB">
<feFlood flood-opacity="0" result="BackgroundImageFix"/>
<feColorMatrix in="SourceAlpha" type="matrix" values="0 0 0 0 0 0 0 0 0 0 0 0 0 0 0 0 0 0 127 0" result="hardAlpha"/>
<feOffset dy="4"/>
<feGaussianBlur stdDeviation="2"/>
<feComposite in2="hardAlpha" operator="out"/>
<feColorMatrix type="matrix" values="0 0 0 0 0 0 0 0 0 0 0 0 0 0 0 0 0 0 0.25 0"/>
<feBlend mode="normal" in2="BackgroundImageFix" result="effect1_dropShadow_747_250"/>
<feBlend mode="normal" in="SourceGraphic" in2="effect1_dropShadow_747_250" result="shape"/>
</filter>
<filter id="filter4_d_747_250" x="59.6484" y="401.517" width="391.044" height="196.236" filterUnits="userSpaceOnUse" color-interpolation-filters="sRGB">
<feFlood flood-opacity="0" result="BackgroundImageFix"/>
<feColorMatrix in="SourceAlpha" type="matrix" values="0 0 0 0 0 0 0 0 0 0 0 0 0 0 0 0 0 0 127 0" result="hardAlpha"/>
<feOffset dy="4"/>
<feGaussianBlur stdDeviation="2"/>
<feComposite in2="hardAlpha" operator="out"/>
<feColorMatrix type="matrix" values="0 0 0 0 0 0 0 0 0 0 0 0 0 0 0 0 0 0 0.25 0"/>
<feBlend mode="normal" in2="BackgroundImageFix" result="effect1_dropShadow_747_250"/>
<feBlend mode="normal" in="SourceGraphic" in2="effect1_dropShadow_747_250" result="shape"/>
</filter>
<filter id="filter5_d_747_250" x="78.26" y="413.015" width="344.441" height="174.943" filterUnits="userSpaceOnUse" color-interpolation-filters="sRGB">
<feFlood flood-opacity="0" result="BackgroundImageFix"/>
<feColorMatrix in="SourceAlpha" type="matrix" values="0 0 0 0 0 0 0 0 0 0 0 0 0 0 0 0 0 0 127 0" result="hardAlpha"/>
<feOffset dy="4"/>
<feGaussianBlur stdDeviation="2"/>
<feComposite in2="hardAlpha" operator="out"/>
<feColorMatrix type="matrix" values="0 0 0 0 0 0 0 0 0 0 0 0 0 0 0 0 0 0 0.25 0"/>
<feBlend mode="normal" in2="BackgroundImageFix" result="effect1_dropShadow_747_250"/>
<feBlend mode="normal" in="SourceGraphic" in2="effect1_dropShadow_747_250" result="shape"/>
</filter>
<filter id="filter6_d_747_250" x="445.818" y="341.894" width="84.6299" height="50.806" filterUnits="userSpaceOnUse" color-interpolation-filters="sRGB">
<feFlood flood-opacity="0" result="BackgroundImageFix"/>
<feColorMatrix in="SourceAlpha" type="matrix" values="0 0 0 0 0 0 0 0 0 0 0 0 0 0 0 0 0 0 127 0" result="hardAlpha"/>
<feOffset dy="4"/>
<feGaussianBlur stdDeviation="2"/>
<feComposite in2="hardAlpha" operator="out"/>
<feColorMatrix type="matrix" values="0 0 0 0 0 0 0 0 0 0 0 0 0 0 0 0 0 0 0.25 0"/>
<feBlend mode="normal" in2="BackgroundImageFix" result="effect1_dropShadow_747_250"/>
<feBlend mode="normal" in="SourceGraphic" in2="effect1_dropShadow_747_250" result="shape"/>
</filter>
<filter id="filter7_d_747_250" x="78.2583" y="458.584" width="353.293" height="9.70349" filterUnits="userSpaceOnUse" color-interpolation-filters="sRGB">
<feFlood flood-opacity="0" result="BackgroundImageFix"/>
<feColorMatrix in="SourceAlpha" type="matrix" values="0 0 0 0 0 0 0 0 0 0 0 0 0 0 0 0 0 0 127 0" result="hardAlpha"/>
<feOffset dy="4"/>
<feGaussianBlur stdDeviation="2"/>
<feComposite in2="hardAlpha" operator="out"/>
<feColorMatrix type="matrix" values="0 0 0 0 0 0 0 0 0 0 0 0 0 0 0 0 0 0 0.25 0"/>
<feBlend mode="normal" in2="BackgroundImageFix" result="effect1_dropShadow_747_250"/>
<feBlend mode="normal" in="SourceGraphic" in2="effect1_dropShadow_747_250" result="shape"/>
</filter>
<filter id="filter8_d_747_250" x="97.459" y="521.344" width="314.319" height="9.70349" filterUnits="userSpaceOnUse" color-interpolation-filters="sRGB">
<feFlood flood-opacity="0" result="BackgroundImageFix"/>
<feColorMatrix in="SourceAlpha" type="matrix" values="0 0 0 0 0 0 0 0 0 0 0 0 0 0 0 0 0 0 127 0" result="hardAlpha"/>
<feOffset dy="4"/>
<feGaussianBlur stdDeviation="2"/>
<feComposite in2="hardAlpha" operator="out"/>
<feColorMatrix type="matrix" values="0 0 0 0 0 0 0 0 0 0 0 0 0 0 0 0 0 0 0.25 0"/>
<feBlend mode="normal" in2="BackgroundImageFix" result="effect1_dropShadow_747_250"/>
<feBlend mode="normal" in="SourceGraphic" in2="effect1_dropShadow_747_250" result="shape"/>
</filter>
<filter id="filter9_d_747_250" x="250.314" y="402.368" width="9.70361" height="194.533" filterUnits="userSpaceOnUse" color-interpolation-filters="sRGB">
<feFlood flood-opacity="0" result="BackgroundImageFix"/>
<feColorMatrix in="SourceAlpha" type="matrix" values="0 0 0 0 0 0 0 0 0 0 0 0 0 0 0 0 0 0 127 0" result="hardAlpha"/>
<feOffset dy="4"/>
<feGaussianBlur stdDeviation="2"/>
<feComposite in2="hardAlpha" operator="out"/>
<feColorMatrix type="matrix" values="0 0 0 0 0 0 0 0 0 0 0 0 0 0 0 0 0 0 0.25 0"/>
<feBlend mode="normal" in2="BackgroundImageFix" result="effect1_dropShadow_747_250"/>
<feBlend mode="normal" in="SourceGraphic" in2="effect1_dropShadow_747_250" result="shape"/>
</filter>
<filter id="filter10_d_747_250" x="316.058" y="402.315" width="21.9285" height="194.64" filterUnits="userSpaceOnUse" color-interpolation-filters="sRGB">
<feFlood flood-opacity="0" result="BackgroundImageFix"/>
<feColorMatrix in="SourceAlpha" type="matrix" values="0 0 0 0 0 0 0 0 0 0 0 0 0 0 0 0 0 0 127 0" result="hardAlpha"/>
<feOffset dy="4"/>
<feGaussianBlur stdDeviation="2"/>
<feComposite in2="hardAlpha" operator="out"/>
<feColorMatrix type="matrix" values="0 0 0 0 0 0 0 0 0 0 0 0 0 0 0 0 0 0 0.25 0"/>
<feBlend mode="normal" in2="BackgroundImageFix" result="effect1_dropShadow_747_250"/>
<feBlend mode="normal" in="SourceGraphic" in2="effect1_dropShadow_747_250" result="shape"/>
</filter>
<filter id="filter11_d_747_250" x="172.38" y="402.313" width="21.8577" height="194.644" filterUnits="userSpaceOnUse" color-interpolation-filters="sRGB">
<feFlood flood-opacity="0" result="BackgroundImageFix"/>
<feColorMatrix in="SourceAlpha" type="matrix" values="0 0 0 0 0 0 0 0 0 0 0 0 0 0 0 0 0 0 127 0" result="hardAlpha"/>
<feOffset dy="4"/>
<feGaussianBlur stdDeviation="2"/>
<feComposite in2="hardAlpha" operator="out"/>
<feColorMatrix type="matrix" values="0 0 0 0 0 0 0 0 0 0 0 0 0 0 0 0 0 0 0.25 0"/>
<feBlend mode="normal" in2="BackgroundImageFix" result="effect1_dropShadow_747_250"/>
<feBlend mode="normal" in="SourceGraphic" in2="effect1_dropShadow_747_250" result="shape"/>
</filter>
<filter id="filter12_d_747_250" x="591.411" y="59.0311" width="91.2124" height="117.528" filterUnits="userSpaceOnUse" color-interpolation-filters="sRGB">
<feFlood flood-opacity="0" result="BackgroundImageFix"/>
<feColorMatrix in="SourceAlpha" type="matrix" values="0 0 0 0 0 0 0 0 0 0 0 0 0 0 0 0 0 0 127 0" result="hardAlpha"/>
<feOffset dy="4"/>
<feGaussianBlur stdDeviation="2"/>
<feComposite in2="hardAlpha" operator="out"/>
<feColorMatrix type="matrix" values="0 0 0 0 0 0 0 0 0 0 0 0 0 0 0 0 0 0 0.25 0"/>
<feBlend mode="normal" in2="BackgroundImageFix" result="effect1_dropShadow_747_250"/>
<feBlend mode="normal" in="SourceGraphic" in2="effect1_dropShadow_747_250" result="shape"/>
</filter>
<filter id="filter13_d_747_250" x="591.411" y="59.0311" width="91.2124" height="117.528" filterUnits="userSpaceOnUse" color-interpolation-filters="sRGB">
<feFlood flood-opacity="0" result="BackgroundImageFix"/>
<feColorMatrix in="SourceAlpha" type="matrix" values="0 0 0 0 0 0 0 0 0 0 0 0 0 0 0 0 0 0 127 0" result="hardAlpha"/>
<feOffset dy="4"/>
<feGaussianBlur stdDeviation="2"/>
<feComposite in2="hardAlpha" operator="out"/>
<feColorMatrix type="matrix" values="0 0 0 0 0 0 0 0 0 0 0 0 0 0 0 0 0 0 0.25 0"/>
<feBlend mode="normal" in2="BackgroundImageFix" result="effect1_dropShadow_747_250"/>
<feBlend mode="normal" in="SourceGraphic" in2="effect1_dropShadow_747_250" result="shape"/>
</filter>
<filter id="filter14_d_747_250" x="564.977" y="326.986" width="187.849" height="374.69" filterUnits="userSpaceOnUse" color-interpolation-filters="sRGB">
<feFlood flood-opacity="0" result="BackgroundImageFix"/>
<feColorMatrix in="SourceAlpha" type="matrix" values="0 0 0 0 0 0 0 0 0 0 0 0 0 0 0 0 0 0 127 0" result="hardAlpha"/>
<feOffset dy="4"/>
<feGaussianBlur stdDeviation="2"/>
<feComposite in2="hardAlpha" operator="out"/>
<feColorMatrix type="matrix" values="0 0 0 0 0 0 0 0 0 0 0 0 0 0 0 0 0 0 0.25 0"/>
<feBlend mode="normal" in2="BackgroundImageFix" result="effect1_dropShadow_747_250"/>
<feBlend mode="normal" in="SourceGraphic" in2="effect1_dropShadow_747_250" result="shape"/>
</filter>
<filter id="filter15_d_747_250" x="596.745" y="682.77" width="50.6731" height="73.2018" filterUnits="userSpaceOnUse" color-interpolation-filters="sRGB">
<feFlood flood-opacity="0" result="BackgroundImageFix"/>
<feColorMatrix in="SourceAlpha" type="matrix" values="0 0 0 0 0 0 0 0 0 0 0 0 0 0 0 0 0 0 127 0" result="hardAlpha"/>
<feOffset dy="4"/>
<feGaussianBlur stdDeviation="2"/>
<feComposite in2="hardAlpha" operator="out"/>
<feColorMatrix type="matrix" values="0 0 0 0 0 0 0 0 0 0 0 0 0 0 0 0 0 0 0.25 0"/>
<feBlend mode="normal" in2="BackgroundImageFix" result="effect1_dropShadow_747_250"/>
<feBlend mode="normal" in="SourceGraphic" in2="effect1_dropShadow_747_250" result="shape"/>
</filter>
<filter id="filter16_d_747_250" x="697.027" y="682.739" width="50.6731" height="73.2018" filterUnits="userSpaceOnUse" color-interpolation-filters="sRGB">
<feFlood flood-opacity="0" result="BackgroundImageFix"/>
<feColorMatrix in="SourceAlpha" type="matrix" values="0 0 0 0 0 0 0 0 0 0 0 0 0 0 0 0 0 0 127 0" result="hardAlpha"/>
<feOffset dy="4"/>
<feGaussianBlur stdDeviation="2"/>
<feComposite in2="hardAlpha" operator="out"/>
<feColorMatrix type="matrix" values="0 0 0 0 0 0 0 0 0 0 0 0 0 0 0 0 0 0 0.25 0"/>
<feBlend mode="normal" in2="BackgroundImageFix" result="effect1_dropShadow_747_250"/>
<feBlend mode="normal" in="SourceGraphic" in2="effect1_dropShadow_747_250" result="shape"/>
</filter>
<filter id="filter17_d_747_250" x="582.876" y="16.0024" width="84.8115" height="84.8115" filterUnits="userSpaceOnUse" color-interpolation-filters="sRGB">
<feFlood flood-opacity="0" result="BackgroundImageFix"/>
<feColorMatrix in="SourceAlpha" type="matrix" values="0 0 0 0 0 0 0 0 0 0 0 0 0 0 0 0 0 0 127 0" result="hardAlpha"/>
<feOffset dy="4"/>
<feGaussianBlur stdDeviation="2"/>
<feComposite in2="hardAlpha" operator="out"/>
<feColorMatrix type="matrix" values="0 0 0 0 0 0 0 0 0 0 0 0 0 0 0 0 0 0 0.25 0"/>
<feBlend mode="normal" in2="BackgroundImageFix" result="effect1_dropShadow_747_250"/>
<feBlend mode="normal" in="SourceGraphic" in2="effect1_dropShadow_747_250" result="shape"/>
</filter>
<filter id="filter18_d_747_250" x="605.279" y="125.886" width="86.9453" height="251.851" filterUnits="userSpaceOnUse" color-interpolation-filters="sRGB">
<feFlood flood-opacity="0" result="BackgroundImageFix"/>
<feColorMatrix in="SourceAlpha" type="matrix" values="0 0 0 0 0 0 0 0 0 0 0 0 0 0 0 0 0 0 127 0" result="hardAlpha"/>
<feOffset dy="4"/>
<feGaussianBlur stdDeviation="2"/>
<feComposite in2="hardAlpha" operator="out"/>
<feColorMatrix type="matrix" values="0 0 0 0 0 0 0 0 0 0 0 0 0 0 0 0 0 0 0.25 0"/>
<feBlend mode="normal" in2="BackgroundImageFix" result="effect1_dropShadow_747_250"/>
<feBlend mode="normal" in="SourceGraphic" in2="effect1_dropShadow_747_250" result="shape"/>
</filter>
<filter id="filter19_d_747_250" x="639.418" y="99.215" width="91.2124" height="282.175" filterUnits="userSpaceOnUse" color-interpolation-filters="sRGB">
<feFlood flood-opacity="0" result="BackgroundImageFix"/>
<feColorMatrix in="SourceAlpha" type="matrix" values="0 0 0 0 0 0 0 0 0 0 0 0 0 0 0 0 0 0 127 0" result="hardAlpha"/>
<feOffset dy="4"/>
<feGaussianBlur stdDeviation="2"/>
<feComposite in2="hardAlpha" operator="out"/>
<feColorMatrix type="matrix" values="0 0 0 0 0 0 0 0 0 0 0 0 0 0 0 0 0 0 0.25 0"/>
<feBlend mode="normal" in2="BackgroundImageFix" result="effect1_dropShadow_747_250"/>
<feBlend mode="normal" in="SourceGraphic" in2="effect1_dropShadow_747_250" result="shape"/>
</filter>
<filter id="filter20_d_747_250" x="676.586" y="273.108" width="75.3809" height="106.649" filterUnits="userSpaceOnUse" color-interpolation-filters="sRGB">
<feFlood flood-opacity="0" result="BackgroundImageFix"/>
<feColorMatrix in="SourceAlpha" type="matrix" values="0 0 0 0 0 0 0 0 0 0 0 0 0 0 0 0 0 0 127 0" result="hardAlpha"/>
<feOffset dy="4"/>
<feGaussianBlur stdDeviation="2"/>
<feComposite in2="hardAlpha" operator="out"/>
<feColorMatrix type="matrix" values="0 0 0 0 0 0 0 0 0 0 0 0 0 0 0 0 0 0 0.25 0"/>
<feBlend mode="normal" in2="BackgroundImageFix" result="effect1_dropShadow_747_250"/>
<feBlend mode="normal" in="SourceGraphic" in2="effect1_dropShadow_747_250" result="shape"/>
</filter>
<filter id="filter21_d_747_250" x="577.543" y="0" width="96.665" height="79.5874" filterUnits="userSpaceOnUse" color-interpolation-filters="sRGB">
<feFlood flood-opacity="0" result="BackgroundImageFix"/>
<feColorMatrix in="SourceAlpha" type="matrix" values="0 0 0 0 0 0 0 0 0 0 0 0 0 0 0 0 0 0 127 0" result="hardAlpha"/>
<feOffset dy="4"/>
<feGaussianBlur stdDeviation="2"/>
<feComposite in2="hardAlpha" operator="out"/>
<feColorMatrix type="matrix" values="0 0 0 0 0 0 0 0 0 0 0 0 0 0 0 0 0 0 0.25 0"/>
<feBlend mode="normal" in2="BackgroundImageFix" result="effect1_dropShadow_747_250"/>
<feBlend mode="normal" in="SourceGraphic" in2="effect1_dropShadow_747_250" result="shape"/>
</filter>
<filter id="filter22_d_747_250" x="532.67" y="97.0594" width="122.396" height="298.307" filterUnits="userSpaceOnUse" color-interpolation-filters="sRGB">
<feFlood flood-opacity="0" result="BackgroundImageFix"/>
<feColorMatrix in="SourceAlpha" type="matrix" values="0 0 0 0 0 0 0 0 0 0 0 0 0 0 0 0 0 0 127 0" result="hardAlpha"/>
<feOffset dy="4"/>
<feGaussianBlur stdDeviation="2"/>
<feComposite in2="hardAlpha" operator="out"/>
<feColorMatrix type="matrix" values="0 0 0 0 0 0 0 0 0 0 0 0 0 0 0 0 0 0 0.25 0"/>
<feBlend mode="normal" in2="BackgroundImageFix" result="effect1_dropShadow_747_250"/>
<feBlend mode="normal" in="SourceGraphic" in2="effect1_dropShadow_747_250" result="shape"/>
</filter>
<filter id="filter23_d_747_250" x="694.893" y="147.222" width="59.7893" height="146.688" filterUnits="userSpaceOnUse" color-interpolation-filters="sRGB">
<feFlood flood-opacity="0" result="BackgroundImageFix"/>
<feColorMatrix in="SourceAlpha" type="matrix" values="0 0 0 0 0 0 0 0 0 0 0 0 0 0 0 0 0 0 127 0" result="hardAlpha"/>
<feOffset dy="4"/>
<feGaussianBlur stdDeviation="2"/>
<feComposite in2="hardAlpha" operator="out"/>
<feColorMatrix type="matrix" values="0 0 0 0 0 0 0 0 0 0 0 0 0 0 0 0 0 0 0.25 0"/>
<feBlend mode="normal" in2="BackgroundImageFix" result="effect1_dropShadow_747_250"/>
<feBlend mode="normal" in="SourceGraphic" in2="effect1_dropShadow_747_250" result="shape"/>
</filter>
<filter id="filter24_d_747_250" x="585.296" y="217" width="116.704" height="139" filterUnits="userSpaceOnUse" color-interpolation-filters="sRGB">
<feFlood flood-opacity="0" result="BackgroundImageFix"/>
<feColorMatrix in="SourceAlpha" type="matrix" values="0 0 0 0 0 0 0 0 0 0 0 0 0 0 0 0 0 0 127 0" result="hardAlpha"/>
<feOffset dy="4"/>
<feGaussianBlur stdDeviation="2"/>
<feComposite in2="hardAlpha" operator="out"/>
<feColorMatrix type="matrix" values="0 0 0 0 0 0 0 0 0 0 0 0 0 0 0 0 0 0 0.25 0"/>
<feBlend mode="normal" in2="BackgroundImageFix" result="effect1_dropShadow_747_250"/>
<feBlend mode="normal" in="SourceGraphic" in2="effect1_dropShadow_747_250" result="shape"/>
</filter>
<filter id="filter25_d_747_250" x="551.938" y="273.369" width="95.48" height="41.2571" filterUnits="userSpaceOnUse" color-interpolation-filters="sRGB">
<feFlood flood-opacity="0" result="BackgroundImageFix"/>
<feColorMatrix in="SourceAlpha" type="matrix" values="0 0 0 0 0 0 0 0 0 0 0 0 0 0 0 0 0 0 127 0" result="hardAlpha"/>
<feOffset dy="4"/>
<feGaussianBlur stdDeviation="2"/>
<feComposite in2="hardAlpha" operator="out"/>
<feColorMatrix type="matrix" values="0 0 0 0 0 0 0 0 0 0 0 0 0 0 0 0 0 0 0.25 0"/>
<feBlend mode="normal" in2="BackgroundImageFix" result="effect1_dropShadow_747_250"/>
<feBlend mode="normal" in="SourceGraphic" in2="effect1_dropShadow_747_250" result="shape"/>
</filter>
<filter id="filter26_d_747_250" x="511.628" y="134.42" width="67.5132" height="178.693" filterUnits="userSpaceOnUse" color-interpolation-filters="sRGB">
<feFlood flood-opacity="0" result="BackgroundImageFix"/>
<feColorMatrix in="SourceAlpha" type="matrix" values="0 0 0 0 0 0 0 0 0 0 0 0 0 0 0 0 0 0 127 0" result="hardAlpha"/>
<feOffset dy="4"/>
<feGaussianBlur stdDeviation="2"/>
<feComposite in2="hardAlpha" operator="out"/>
<feColorMatrix type="matrix" values="0 0 0 0 0 0 0 0 0 0 0 0 0 0 0 0 0 0 0.25 0"/>
<feBlend mode="normal" in2="BackgroundImageFix" result="effect1_dropShadow_747_250"/>
<feBlend mode="normal" in="SourceGraphic" in2="effect1_dropShadow_747_250" result="shape"/>
</filter>
<filter id="filter27_d_747_250" x="150.625" y="200.625" width="176.75" height="176.75" filterUnits="userSpaceOnUse" color-interpolation-filters="sRGB">
<feFlood flood-opacity="0" result="BackgroundImageFix"/>
<feColorMatrix in="SourceAlpha" type="matrix" values="0 0 0 0 0 0 0 0 0 0 0 0 0 0 0 0 0 0 127 0" result="hardAlpha"/>
<feOffset dy="4"/>
<feGaussianBlur stdDeviation="2"/>
<feComposite in2="hardAlpha" operator="out"/>
<feColorMatrix type="matrix" values="0 0 0 0 0 0 0 0 0 0 0 0 0 0 0 0 0 0 0.25 0"/>
<feBlend mode="normal" in2="BackgroundImageFix" result="effect1_dropShadow_747_250"/>
<feBlend mode="normal" in="SourceGraphic" in2="effect1_dropShadow_747_250" result="shape"/>
</filter>
<clipPath id="clip0_747_250">
<rect width="896" height="747.971" fill="white"/>
</clipPath>
</defs>
</svg>
