<svg width="304" height="526" viewBox="0 0 304 526" fill="none" xmlns="http://www.w3.org/2000/svg">
<g clip-path="url(#clip0_747_230)">
<path d="M42.4902 524.23C42.4902 524.89 43.0202 525.42 43.6802 525.42H302.52C303.18 525.42 303.71 524.89 303.71 524.23C303.71 523.57 303.18 523.04 302.52 523.04H43.6802C43.0202 523.04 42.4902 523.57 42.4902 524.23Z" fill="#484565"/>
<path d="M178.61 0.330051C178.61 0.330051 156.7 -4.97995 143.44 27.1001C132.39 53.8401 124.55 68.1201 133.52 77.8201C136.73 81.2901 141.31 83.1601 146.03 83.3201L196.53 84.9801C196.53 84.9801 215.07 36.3601 203.8 18.7801C192.53 1.19005 178.61 0.330051 178.61 0.330051Z" fill="#2F2E41"/>
<path d="M189.07 80.94L164.78 88.93V53.96H186.82L189.07 80.94Z" fill="#9F6254"/>
<path d="M170.43 504.69H147.67L134.48 383.11H169.65L170.43 504.69Z" fill="#9F6254"/>
<path d="M125.51 524.23C123.12 524.23 120.99 524.17 119.38 524.02C113.33 523.47 107.57 519.01 104.67 516.4C103.37 515.23 102.95 513.36 103.63 511.75C104.12 510.59 105.09 509.73 106.29 509.39L122.26 504.83L148.12 487.38L148.41 487.9C148.52 488.09 151.06 492.67 151.91 495.76C152.23 496.94 152.15 497.92 151.66 498.67C151.32 499.2 150.85 499.5 150.46 499.67C150.93 500.16 152.4 501.15 156.91 501.87C163.51 502.92 164.89 496.08 164.95 495.79L164.99 495.56L165.19 495.43C168.33 493.41 170.26 492.49 170.93 492.68C171.35 492.8 172.04 493.01 173.91 511.63C174.1 512.21 175.41 516.5 174.52 520.59C173.55 525.05 154.08 523.51 150.18 523.16C150.07 523.17 135.49 524.21 125.5 524.21V524.23H125.51Z" fill="#2F2E41"/>
<path d="M221.83 504.69H199.08L185.88 383.11H221.05L221.83 504.69Z" fill="#9F6254"/>
<path d="M176.92 524.23C174.53 524.23 172.4 524.17 170.79 524.02C164.74 523.47 158.98 519.01 156.08 516.4C154.78 515.23 154.36 513.36 155.04 511.75C155.53 510.59 156.5 509.73 157.7 509.39L173.67 504.83L199.53 487.38L199.82 487.9C199.93 488.09 202.47 492.67 203.32 495.76C203.64 496.94 203.56 497.92 203.07 498.67C202.73 499.2 202.26 499.5 201.87 499.67C202.34 500.16 203.81 501.15 208.32 501.87C214.92 502.92 216.3 496.08 216.36 495.79L216.4 495.56L216.6 495.43C219.74 493.41 221.67 492.49 222.34 492.68C222.76 492.8 223.45 493.01 225.32 511.63C225.51 512.21 226.82 516.5 225.93 520.59C224.96 525.05 205.49 523.51 201.59 523.16C201.48 523.17 186.9 524.21 176.91 524.21V524.23H176.92Z" fill="#2F2E41"/>
<path d="M228.38 206.07H117.82L157.56 75.28H201.64L228.38 206.07Z" fill="#DDDEDF"/>
<path d="M114.81 279.46C113.49 287.47 108.15 293.22 102.88 292.29C97.6099 291.36 94.4 284.12 95.72 276.11C96.2 272.9 97.4699 269.87 99.4199 267.26L105.44 233.39L121.83 236.82L114.15 269.84C115.16 272.96 115.39 276.26 114.82 279.46H114.81Z" fill="#9F6254"/>
<path d="M164.52 75.3001C164.52 75.3001 137.06 74.5801 134.17 81.8001C131.28 89.0301 97.3198 261.01 97.3198 261.01H119.72L164.52 75.3001Z" fill="#DDDEDF"/>
<path d="M170.35 62.2201C183.721 62.2201 194.56 51.3809 194.56 38.01C194.56 24.6392 183.721 13.8 170.35 13.8C156.979 13.8 146.14 24.6392 146.14 38.01C146.14 51.3809 156.979 62.2201 170.35 62.2201Z" fill="#9F6254"/>
<path d="M174.15 8.32006C174.15 8.32006 143.07 54.5501 148.3 83.3901L130.22 72.0601C130.22 72.0601 142.95 13.6801 161.92 9.15006L174.15 8.31006V8.32006Z" fill="#2F2E41"/>
<path d="M205.4 206.07H132.85L93.1499 369C92.4199 375.88 96.7799 382.3 103.47 384.09C125.25 389.92 177.51 398.19 256.62 375.17C264.23 372.96 268.55 364.93 266.16 357.37L205.4 206.08V206.07Z" fill="#2F2E41"/>
<path d="M107.55 98.48L107.05 97.98L106.55 98.48C82.2202 74.17 42.7902 74.2 18.4802 98.53C-5.82981 122.87 -6.31981 162.79 18.0102 187.1L107.11 276.11L196.15 186.99C220.46 162.65 219.95 122.73 195.63 98.42C171.3 74.11 131.87 74.14 107.56 98.47L107.55 98.48Z" fill="#FFD369"/>
<path d="M173.35 87.52L193.45 77.21C202.64 73.81 212.89 74.95 221.11 80.3C246.11 96.56 295.39 132.41 274.21 150.13C246.3 173.49 208.57 132.06 208.57 132.06L173.35 87.52Z" fill="#DDDEDF"/>
<path d="M172.91 105.14C165.92 101.02 162.49 93.96 165.26 89.37C168.03 84.79 175.94 84.42 182.94 88.54C185.76 90.15 188.13 92.43 189.85 95.19L219.25 113.05L210.13 127.09L182.11 107.99C178.83 107.8 175.67 106.82 172.9 105.13H172.91V105.14Z" fill="#9F6254"/>
<path d="M192.89 121.33L201.25 101.36L242.1 114.88L223.83 145.29L192.89 121.33Z" fill="#DDDEDF"/>
<line x1="17.8843" y1="65.7469" x2="194.884" y2="233.747" stroke="#F73C55" stroke-width="20"/>
<line x1="195.413" y1="66.2757" x2="17.8602" y2="233.691" stroke="#F73C55" stroke-width="20"/>
</g>
<defs>
<clipPath id="clip0_747_230">
<rect width="303.71" height="525.42" fill="white"/>
</clipPath>
</defs>
</svg>
