<svg width="718" height="620" viewBox="0 0 718 620" fill="none" xmlns="http://www.w3.org/2000/svg">
<path d="M270.609 128.781H267.631V47.2108C267.631 41.011 266.41 34.8719 264.037 29.144C261.665 23.4161 258.187 18.2117 253.803 13.8277C249.419 9.4438 244.215 5.96628 238.487 3.59372C232.759 1.22115 226.62 5.25296e-06 220.42 0H47.6024C35.0813 -2.38694e-05 23.0731 4.97392 14.2194 13.8276C5.36562 22.6813 0.391628 34.6895 0.391602 47.2106V494.712C0.391595 500.912 1.61274 507.051 3.98529 512.779C6.35784 518.507 9.83535 523.711 14.2193 528.095C18.6032 532.479 23.8077 535.957 29.5355 538.329C35.2634 540.702 41.4025 541.923 47.6023 541.923H220.42C232.941 541.923 244.949 536.949 253.803 528.095C262.657 519.242 267.631 507.233 267.631 494.712V186.844H270.609V128.781Z" fill="#3F3D56"/>
<path d="M222.325 12.2826H199.767C200.804 14.826 201.2 17.5855 200.92 20.3179C200.639 23.0504 199.691 25.672 198.159 27.9518C196.627 30.2317 194.558 32.0997 192.134 33.3914C189.71 34.6831 187.005 35.3588 184.258 35.359H85.253C82.5062 35.3588 79.8016 34.6831 77.3774 33.3914C74.9533 32.0997 72.884 30.2317 71.3518 27.9519C69.8197 25.672 68.8717 23.0504 68.5914 20.3179C68.3111 17.5855 68.7072 14.826 69.7446 12.2826H48.6749C44.045 12.2826 39.4604 13.1945 35.1829 14.9663C30.9054 16.7381 27.0187 19.3351 23.7448 22.6089C20.471 25.8828 17.874 29.7694 16.1022 34.047C14.3304 38.3245 13.4185 42.9091 13.4185 47.539V494.384C13.4185 499.014 14.3304 503.598 16.1022 507.876C17.874 512.153 20.471 516.04 23.7448 519.314C27.0187 522.588 30.9053 525.185 35.1828 526.957C39.4603 528.728 44.0449 529.64 48.6749 529.64H222.325C226.955 529.64 231.54 528.728 235.817 526.957C240.095 525.185 243.981 522.588 247.255 519.314C250.529 516.04 253.126 512.153 254.898 507.876C256.67 503.598 257.582 499.014 257.582 494.384V47.539C257.582 42.9091 256.67 38.3245 254.898 34.047C253.126 29.7694 250.529 25.8828 247.255 22.6089C243.981 19.3351 240.095 16.7381 235.817 14.9663C231.54 13.1945 226.955 12.2826 222.325 12.2826Z" fill="white"/>
<path d="M135.5 345.68C182.138 345.68 219.946 307.872 219.946 261.234C219.946 214.595 182.138 176.787 135.5 176.787C88.8616 176.787 51.0537 214.595 51.0537 261.234C51.0537 307.872 88.8616 345.68 135.5 345.68Z" fill="#FFD369"/>
<path d="M127.132 293.447C125.232 293.451 123.383 292.836 121.863 291.696L121.769 291.626L101.923 276.444C101.004 275.739 100.232 274.861 99.6527 273.858C99.0732 272.855 98.6969 271.748 98.5452 270.6C98.3935 269.451 98.4695 268.285 98.7688 267.166C99.068 266.047 99.5848 264.998 100.289 264.079C100.994 263.16 101.873 262.388 102.876 261.809C103.878 261.229 104.986 260.853 106.134 260.701C107.282 260.55 108.449 260.626 109.568 260.925C110.686 261.224 111.735 261.741 112.655 262.446L125.509 272.303L155.885 232.674C156.59 231.755 157.468 230.984 158.471 230.405C159.473 229.826 160.58 229.449 161.727 229.298C162.875 229.146 164.041 229.222 165.16 229.521C166.278 229.821 167.327 230.337 168.245 231.041L168.248 231.043L168.059 231.305L168.253 231.043C170.107 232.468 171.319 234.57 171.625 236.887C171.931 239.205 171.305 241.549 169.884 243.406L134.155 289.998C133.328 291.071 132.265 291.94 131.049 292.536C129.832 293.133 128.495 293.441 127.14 293.437L127.132 293.447Z" fill="white"/>
<path d="M717.169 96.635C717.67 93.0831 716.85 89.4711 714.865 86.4834C712.88 83.4957 709.868 81.3399 706.4 80.4245C702.932 79.5091 699.248 79.8977 696.047 81.5167C692.846 83.1357 690.351 85.8726 689.033 89.2088L658.116 124.653L667.187 149.99L698.28 108.575C700.309 109.225 702.456 109.422 704.569 109.152C706.683 108.883 708.711 108.153 710.512 107.015C712.313 105.876 713.843 104.357 714.993 102.564C716.143 100.77 716.886 98.7465 717.169 96.635Z" fill="#FFB7B7"/>
<path d="M589.013 234.549L691.642 125.02L677.799 103.012L549.076 211.876L589.013 234.549Z" fill="#6C6E71"/>
<path d="M566.107 168C585.99 168 602.107 151.882 602.107 132C602.107 112.118 585.99 96 566.107 96C546.225 96 530.107 112.118 530.107 132C530.107 151.882 546.225 168 566.107 168Z" fill="#2F2E41"/>
<path d="M569.001 111.663C576.748 103.808 586.122 97.7456 596.465 93.904C603.103 91.4446 610.329 89.925 617.27 91.3218C624.21 92.7184 630.774 97.5198 632.71 104.33C634.293 109.898 632.658 115.893 630.201 121.135C627.744 126.377 624.464 131.238 622.477 136.675C620.449 142.223 619.839 148.189 620.703 154.033C621.566 159.876 623.875 165.412 627.42 170.136C630.966 174.861 635.635 178.625 641.004 181.088C646.373 183.55 652.272 184.633 658.166 184.237C651.346 185.152 645.06 188.356 638.395 190.062C631.729 191.768 623.862 191.652 618.909 186.877C613.668 181.824 613.563 173.61 613.816 166.334C614.193 155.519 614.57 144.704 614.946 133.889C615.138 128.374 615.302 122.682 613.313 117.534C611.324 112.386 606.597 107.878 601.079 107.925C596.896 107.96 593.194 110.494 589.84 112.993C586.486 115.492 582.936 118.158 578.769 118.529C574.603 118.901 569.846 115.818 570.158 111.647L569.001 111.663Z" fill="#2F2E41"/>
<path d="M429.377 373.723C425.921 374.683 422.233 374.342 419.011 372.764C415.79 371.187 413.259 368.482 411.898 365.164C410.538 361.845 410.442 358.142 411.629 354.757C412.815 351.372 415.203 348.54 418.338 346.798L449.439 311.514L475.743 317.197L438.746 353.436C439.656 355.362 440.132 357.465 440.141 359.595C440.15 361.726 439.691 363.832 438.798 365.766C437.905 367.701 436.598 369.416 434.971 370.79C433.343 372.165 431.434 373.166 429.377 373.723Z" fill="#FFB7B7"/>
<path d="M531.698 247.405L454.183 344.705L430.555 333.857L521.665 192.012L531.698 247.405Z" fill="#6C6E71"/>
<path d="M469.848 541.211L451.374 540.921L453.596 603.887H469.845L469.848 541.211Z" fill="#FFB7B7"/>
<path d="M473.99 598.582L441.989 598.581H441.987C436.579 598.581 431.392 600.73 427.567 604.554C423.743 608.378 421.594 613.565 421.594 618.974V619.637L473.989 619.639L473.99 598.582Z" fill="#2A2C2F"/>
<path d="M592.165 524.511L571.984 537.467L612.352 586.032L626.026 577.253L592.165 524.511Z" fill="#FFB7B7"/>
<path d="M626.647 570.549L599.718 587.838L599.717 587.838C595.166 590.761 591.962 595.371 590.81 600.656C589.658 605.94 590.653 611.466 593.575 616.017L593.933 616.575L638.023 588.268L626.647 570.549Z" fill="#2A2C2F"/>
<path d="M599.355 332.24C599.355 332.24 554.515 183.313 540.105 181.3C525.695 179.288 502.477 219.513 502.477 219.513C472.374 257.921 441.333 382.334 441.333 382.334C441.333 382.334 493.08 385.572 530.906 405.697C568.733 425.823 613.374 404.679 613.374 404.679L599.355 332.24Z" fill="#2A2C2F"/>
<path opacity="0.1" d="M599.355 332.24C599.355 332.24 554.515 183.313 540.105 181.3C525.695 179.288 508.374 219.921 508.374 219.921C493.374 281.921 441.333 382.334 441.333 382.334C441.333 382.334 493.08 385.572 530.906 405.698C568.733 425.823 613.374 404.679 613.374 404.679L599.355 332.24Z" fill="black"/>
<path d="M562.567 287.682V362.517L571.374 470.921L615.374 552.921L594.374 567.921L534.374 489.921L510.643 412.472L473.374 583.921L445.374 581.921L464.82 344.21L501.721 277.3L562.567 287.682Z" fill="#6C6E71"/>
<path d="M517.357 215.3C503.357 229.3 516.357 244.3 516.357 244.3L500.357 280.3L563.357 297.3L585.374 198.921L570.374 182.921C540.374 181.921 540.357 181.3 540.357 181.3C535.101 186.444 517.357 215.3 517.357 215.3Z" fill="#FFD369"/>
<path d="M587.911 188.73C585.05 186.617 581.798 185.094 578.343 184.248C574.889 183.401 571.301 183.249 567.788 183.798C564.274 184.348 560.905 185.59 557.874 187.452C554.844 189.313 552.213 191.757 550.134 194.643C534.296 216.695 519.651 252.304 539.829 296.714C572.228 368.024 600.422 404.529 611.884 404.525C612.385 404.529 612.882 404.451 613.357 404.294C620.413 401.9 630.613 389.962 632.46 379.441C633.121 375.675 632.964 370.43 628.46 366.829C615.525 356.482 592.303 324.267 585.059 281.865C581.055 258.435 588.819 237.093 596.036 223.315C599.085 217.614 599.977 211.005 598.549 204.7C597.12 198.395 593.467 192.816 588.259 188.986L587.911 188.73Z" fill="#6C6E71"/>
<path d="M567.959 164.463C580.801 157.443 585.521 141.342 578.501 128.5C571.48 115.658 555.379 110.938 542.537 117.958C529.695 124.978 524.975 141.08 531.995 153.922C539.015 166.764 555.117 171.483 567.959 164.463Z" fill="#FFB7B7"/>
<path d="M517.979 139.207H556.245L556.638 133.713L558.599 139.207H564.492L565.269 128.319L569.158 139.207H580.559V138.668C580.55 131.087 577.535 123.82 572.175 118.459C566.815 113.099 559.547 110.084 551.967 110.075H546.572C538.991 110.084 531.724 113.099 526.363 118.459C521.003 123.82 517.988 131.087 517.979 138.668V139.207Z" fill="#2F2E41"/>
<path d="M574.778 158.954L591.108 153.656V114H560.263L561.027 114.762C571.651 125.373 583.468 163.019 574.778 158.954Z" fill="#2F2E41"/>
</svg>
