<svg width="28" height="24" viewBox="0 0 28 24" fill="none" xmlns="http://www.w3.org/2000/svg">
<g filter="url(#filter0_d_78_858)">
<path d="M24.0008 10.0006C24.0008 10.2658 23.8954 10.5201 23.7079 10.7077C23.5204 10.8952 23.266 11.0006 23.0008 11.0006H3.41454L10.7083 18.2931C10.8012 18.386 10.8749 18.4963 10.9252 18.6177C10.9755 18.7391 11.0013 18.8692 11.0013 19.0006C11.0013 19.132 10.9755 19.2621 10.9252 19.3835C10.8749 19.5048 10.8012 19.6151 10.7083 19.7081C10.6154 19.801 10.5051 19.8747 10.3837 19.9249C10.2623 19.9752 10.1322 20.0011 10.0008 20.0011C9.86939 20.0011 9.73928 19.9752 9.61789 19.9249C9.4965 19.8747 9.3862 19.801 9.29329 19.7081L0.293287 10.7081C0.20031 10.6152 0.126551 10.5049 0.0762269 10.3835C0.0259027 10.2621 0 10.132 0 10.0006C0 9.86914 0.0259027 9.73901 0.0762269 9.61762C0.126551 9.49622 0.20031 9.38593 0.293287 9.29306L9.29329 0.293056C9.48093 0.105415 9.73542 -1.97712e-09 10.0008 0C10.2662 1.97712e-09 10.5206 0.105415 10.7083 0.293056C10.8959 0.480697 11.0013 0.735192 11.0013 1.00056C11.0013 1.26592 10.8959 1.52042 10.7083 1.70806L3.41454 9.00056H23.0008C23.266 9.00056 23.5204 9.10591 23.7079 9.29345C23.8954 9.48099 24.0008 9.73534 24.0008 10.0006Z" fill="#FFD369"/>
</g>
<defs>
<filter id="filter0_d_78_858" x="0" y="0" width="28.0007" height="24.0011" filterUnits="userSpaceOnUse" color-interpolation-filters="sRGB">
<feFlood flood-opacity="0" result="BackgroundImageFix"/>
<feColorMatrix in="SourceAlpha" type="matrix" values="0 0 0 0 0 0 0 0 0 0 0 0 0 0 0 0 0 0 127 0" result="hardAlpha"/>
<feOffset dx="2" dy="2"/>
<feGaussianBlur stdDeviation="1"/>
<feComposite in2="hardAlpha" operator="out"/>
<feColorMatrix type="matrix" values="0 0 0 0 0 0 0 0 0 0 0 0 0 0 0 0 0 0 0.75 0"/>
<feBlend mode="normal" in2="BackgroundImageFix" result="effect1_dropShadow_78_858"/>
<feBlend mode="normal" in="SourceGraphic" in2="effect1_dropShadow_78_858" result="shape"/>
</filter>
</defs>
</svg>
