<svg width="27" height="27" viewBox="0 0 27 27" fill="none" xmlns="http://www.w3.org/2000/svg">
<path d="M26.7675 5.35875C26.6736 5.24642 26.5562 5.15607 26.4236 5.09408C26.291 5.03209 26.1464 4.99998 26 5H5.835L5.22375 1.6425C5.14003 1.18167 4.89723 0.764838 4.53767 0.464677C4.17812 0.164517 3.72462 6.7693e-05 3.25625 0H1C0.734784 0 0.48043 0.105357 0.292893 0.292893C0.105357 0.48043 0 0.734784 0 1C0 1.26522 0.105357 1.51957 0.292893 1.70711C0.48043 1.89464 0.734784 2 1 2H3.25L6.445 19.5362C6.53911 20.0563 6.76895 20.5423 7.11125 20.945C6.63881 21.3863 6.29781 21.9498 6.12607 22.573C5.95433 23.1962 5.95856 23.8549 6.13829 24.4759C6.31801 25.0968 6.66622 25.6559 7.14428 26.0911C7.62235 26.5263 8.2116 26.8205 8.8467 26.9412C9.48179 27.062 10.1379 27.0044 10.7423 26.775C11.3467 26.5456 11.8758 26.1533 12.2708 25.6416C12.6658 25.1299 12.9114 24.5187 12.9804 23.8759C13.0493 23.2332 12.9388 22.5838 12.6613 22H18.3388C18.115 22.4684 17.9993 22.981 18 23.5C18 24.1922 18.2053 24.8689 18.5899 25.4445C18.9744 26.0201 19.5211 26.4687 20.1606 26.7336C20.8001 26.9985 21.5039 27.0678 22.1828 26.9327C22.8617 26.7977 23.4854 26.4644 23.9749 25.9749C24.4644 25.4854 24.7977 24.8617 24.9327 24.1828C25.0678 23.5039 24.9985 22.8001 24.7336 22.1606C24.4687 21.5211 24.0201 20.9744 23.4445 20.5899C22.8689 20.2053 22.1922 20 21.5 20H9.39625C9.16206 20 8.93532 19.9177 8.75554 19.7677C8.57576 19.6176 8.45436 19.4092 8.4125 19.1787L8.01625 17H22.5163C23.2188 16.9999 23.8991 16.7532 24.4384 16.303C24.9777 15.8527 25.3419 15.2275 25.4675 14.5362L26.9875 6.17875C27.0132 6.0343 27.0069 5.88596 26.9688 5.74424C26.9308 5.60253 26.8621 5.47092 26.7675 5.35875ZM11 23.5C11 23.7967 10.912 24.0867 10.7472 24.3334C10.5824 24.58 10.3481 24.7723 10.074 24.8858C9.79994 24.9993 9.49834 25.0291 9.20736 24.9712C8.91639 24.9133 8.64912 24.7704 8.43934 24.5607C8.22956 24.3509 8.0867 24.0836 8.02882 23.7926C7.97094 23.5017 8.00065 23.2001 8.11418 22.926C8.22771 22.6519 8.41997 22.4176 8.66665 22.2528C8.91332 22.088 9.20333 22 9.5 22C9.89782 22 10.2794 22.158 10.5607 22.4393C10.842 22.7206 11 23.1022 11 23.5ZM23 23.5C23 23.7967 22.912 24.0867 22.7472 24.3334C22.5824 24.58 22.3481 24.7723 22.074 24.8858C21.7999 24.9993 21.4983 25.0291 21.2074 24.9712C20.9164 24.9133 20.6491 24.7704 20.4393 24.5607C20.2296 24.3509 20.0867 24.0836 20.0288 23.7926C19.9709 23.5017 20.0007 23.2001 20.1142 22.926C20.2277 22.6519 20.42 22.4176 20.6666 22.2528C20.9133 22.088 21.2033 22 21.5 22C21.8978 22 22.2794 22.158 22.5607 22.4393C22.842 22.7206 23 23.1022 23 23.5ZM23.5 14.1787C23.458 14.4098 23.3361 14.6187 23.1555 14.7689C22.975 14.919 22.7473 15.0008 22.5125 15H7.6525L6.19875 7H24.8013L23.5 14.1787Z" fill="#FFD369"/>
</svg>
