<svg width="24" height="25" viewBox="0 0 24 25" fill="none" xmlns="http://www.w3.org/2000/svg">
<path d="M23.3538 9.96912L13.3538 0.534124C13.3489 0.529859 13.3443 0.525265 13.34 0.520374C12.9718 0.185541 12.492 0 11.9944 0C11.4967 0 11.0169 0.185541 10.6488 0.520374L10.635 0.534124L0.64625 9.96912C0.442497 10.1565 0.279855 10.3841 0.168614 10.6376C0.057374 10.891 -4.20536e-05 11.1648 2.31098e-08 11.4416V22.9979C2.31098e-08 23.5283 0.210714 24.037 0.585786 24.4121C0.960859 24.7872 1.46957 24.9979 2 24.9979H8C8.53043 24.9979 9.03914 24.7872 9.41421 24.4121C9.78929 24.037 10 23.5283 10 22.9979V16.9979H14V22.9979C14 23.5283 14.2107 24.037 14.5858 24.4121C14.9609 24.7872 15.4696 24.9979 16 24.9979H22C22.5304 24.9979 23.0391 24.7872 23.4142 24.4121C23.7893 24.037 24 23.5283 24 22.9979V11.4416C24 11.1648 23.9426 10.891 23.8314 10.6376C23.7201 10.3841 23.5575 10.1565 23.3538 9.96912ZM22 22.9979H16V16.9979C16 16.4674 15.7893 15.9587 15.4142 15.5837C15.0391 15.2086 14.5304 14.9979 14 14.9979H10C9.46957 14.9979 8.96086 15.2086 8.58579 15.5837C8.21071 15.9587 8 16.4674 8 16.9979V22.9979H2V11.4416L2.01375 11.4291L12 1.99787L21.9875 11.4266L22.0012 11.4391L22 22.9979Z" fill="#FFD369"/>
</svg>
