<svg width="28" height="28" viewBox="0 0 28 28" fill="none" xmlns="http://www.w3.org/2000/svg">
<g filter="url(#filter0_d_525_103)">
<path fill-rule="evenodd" clip-rule="evenodd" d="M12 24C15.1826 24 18.2348 22.7357 20.4853 20.4853C22.7357 18.2348 24 15.1826 24 12C24 8.8174 22.7357 5.76516 20.4853 3.51472C18.2348 1.26428 15.1826 0 12 0C8.8174 0 5.76516 1.26428 3.51472 3.51472C1.26428 5.76516 0 8.8174 0 12C0 15.1826 1.26428 18.2348 3.51472 20.4853C5.76516 22.7357 8.8174 24 12 24ZM7.5 10.5C7.10218 10.5 6.72064 10.658 6.43934 10.9393C6.15804 11.2206 6 11.6022 6 12C6 12.3978 6.15804 12.7794 6.43934 13.0607C6.72064 13.342 7.10218 13.5 7.5 13.5H16.5C16.8978 13.5 17.2794 13.342 17.5607 13.0607C17.842 12.7794 18 12.3978 18 12C18 11.6022 17.842 11.2206 17.5607 10.9393C17.2794 10.658 16.8978 10.5 16.5 10.5H7.5Z" fill="#F73C55"/>
</g>
<defs>
<filter id="filter0_d_525_103" x="0" y="0" width="28" height="28" filterUnits="userSpaceOnUse" color-interpolation-filters="sRGB">
<feFlood flood-opacity="0" result="BackgroundImageFix"/>
<feColorMatrix in="SourceAlpha" type="matrix" values="0 0 0 0 0 0 0 0 0 0 0 0 0 0 0 0 0 0 127 0" result="hardAlpha"/>
<feOffset dx="2" dy="2"/>
<feGaussianBlur stdDeviation="1"/>
<feComposite in2="hardAlpha" operator="out"/>
<feColorMatrix type="matrix" values="0 0 0 0 0 0 0 0 0 0 0 0 0 0 0 0 0 0 0.75 0"/>
<feBlend mode="normal" in2="BackgroundImageFix" result="effect1_dropShadow_525_103"/>
<feBlend mode="normal" in="SourceGraphic" in2="effect1_dropShadow_525_103" result="shape"/>
</filter>
</defs>
</svg>
