<svg width="24" height="24" viewBox="0 0 24 24" fill="none" xmlns="http://www.w3.org/2000/svg">
<circle cx="12" cy="12" r="12" fill="#EB6776"/>
<path d="M14.8634 7.40753C13.7456 7.40753 12.7904 8.20433 12.2656 8.75367C11.7408 8.20433 10.7877 7.40753 9.67036 7.40753C7.7445 7.40753 6.39996 8.74993 6.39996 10.6715C6.39996 12.7889 8.06983 14.1574 9.6853 15.4811C10.448 16.1067 11.2373 16.7531 11.8426 17.4699C11.9445 17.5899 12.0938 17.6593 12.2506 17.6593H12.2816C12.4389 17.6593 12.5877 17.5894 12.689 17.4699C13.2954 16.7531 14.0842 16.1062 14.8474 15.4811C16.4624 14.1579 18.1333 12.7894 18.1333 10.6715C18.1333 8.74993 16.7888 7.40753 14.8634 7.40753V7.40753Z" fill="#2A2C2F"/>
</svg>
