<svg width="24" height="25" viewBox="0 0 24 25" fill="none" xmlns="http://www.w3.org/2000/svg">
<path d="M23.7223 17.9925C23.8995 18.2963 23.9934 18.6414 23.9946 18.9931C23.9958 19.3448 23.9043 19.6906 23.7292 19.9956C23.5541 20.3006 23.3017 20.5541 22.9974 20.7304C22.6931 20.9068 22.3477 20.9997 21.9961 21H16.8961C16.6665 22.1303 16.0533 23.1465 15.1603 23.8764C14.2673 24.6063 13.1494 25.005 11.9961 25.005C10.8427 25.005 9.72481 24.6063 8.8318 23.8764C7.93878 23.1465 7.32557 22.1303 7.09605 21H1.99605C1.64458 20.9993 1.2995 20.906 0.995562 20.7295C0.691628 20.553 0.439578 20.2995 0.264802 19.9945C0.0900265 19.6896 -0.00130283 19.344 1.40417e-05 18.9925C0.00133091 18.641 0.0952475 18.2961 0.272303 17.9925C1.39855 16.0487 1.99605 13.285 1.99605 10C1.99605 7.34784 3.04962 4.8043 4.92499 2.92893C6.80035 1.05357 9.34389 0 11.9961 0C14.6482 0 17.1918 1.05357 19.0671 2.92893C20.9425 4.8043 21.9961 7.34784 21.9961 10C21.9961 13.2838 22.5936 16.0475 23.7223 17.9925ZM14.8236 21H9.16855C9.37573 21.5843 9.75882 22.09 10.2651 22.4477C10.7715 22.8053 11.3761 22.9974 11.9961 22.9974C12.616 22.9974 13.2207 22.8053 13.727 22.4477C14.2333 22.09 14.6164 21.5843 14.8236 21ZM21.9961 19C20.6661 16.7162 19.9961 13.6888 19.9961 10C19.9961 7.87827 19.1532 5.84344 17.6529 4.34315C16.1526 2.84285 14.1178 2 11.9961 2C9.87432 2 7.83949 2.84285 6.3392 4.34315C4.83891 5.84344 3.99605 7.87827 3.99605 10C3.99605 13.69 3.32355 16.7175 1.99605 19H21.9961Z" fill="#FFD369"/>
</svg>
