<svg width="24" height="24" viewBox="0 0 24 24" fill="none" xmlns="http://www.w3.org/2000/svg">
<path d="M23.7907 4.76284C23.7073 4.663 23.6029 4.5827 23.4851 4.5276C23.3672 4.4725 23.2387 4.44396 23.1085 4.44398H5.18609L4.64282 1.45985C4.56841 1.05026 4.35261 0.679785 4.03304 0.413003C3.71347 0.146222 3.31041 6.01653e-05 2.89412 0H0.88879C0.653068 0 0.427001 0.0936407 0.260321 0.260322C0.0936401 0.427004 0 0.653073 0 0.888796C0 1.12452 0.0936401 1.35059 0.260321 1.51727C0.427001 1.68395 0.653068 1.77759 0.88879 1.77759H2.88857L5.72825 17.3637C5.8119 17.826 6.01618 18.2579 6.32041 18.6158C5.90051 19.008 5.59743 19.5089 5.44479 20.0628C5.29215 20.6167 5.29591 21.2021 5.45565 21.754C5.61539 22.306 5.92487 22.8029 6.34977 23.1897C6.77467 23.5764 7.29839 23.838 7.86286 23.9453C8.42732 24.0526 9.01048 24.0014 9.54766 23.7975C10.0848 23.5937 10.5551 23.245 10.9062 22.7901C11.2573 22.3353 11.4756 21.7922 11.5368 21.2208C11.5981 20.6495 11.4999 20.0724 11.2532 19.5535H16.2993C16.1005 19.9698 15.9976 20.4254 15.9982 20.8867C15.9982 21.502 16.1807 22.1034 16.5225 22.615C16.8643 23.1265 17.3501 23.5253 17.9186 23.7607C18.487 23.9962 19.1124 24.0578 19.7159 23.9377C20.3193 23.8177 20.8736 23.5214 21.3086 23.0864C21.7437 22.6513 22.04 22.097 22.16 21.4936C22.28 20.8902 22.2184 20.2647 21.983 19.6963C21.7475 19.1278 21.3488 18.642 20.8372 18.3002C20.3257 17.9584 19.7242 17.7759 19.109 17.7759H8.35129C8.14315 17.7759 7.94162 17.7028 7.78184 17.5694C7.62205 17.436 7.51415 17.2508 7.47695 17.046L7.12476 15.1095H20.0122C20.6367 15.1094 21.2412 14.8902 21.7206 14.49C22.1999 14.0899 22.5236 13.5341 22.6353 12.9198L23.9862 5.49165C24.0091 5.36326 24.0034 5.23142 23.9696 5.10546C23.9359 4.97951 23.8748 4.86253 23.7907 4.76284ZM9.77669 20.8867C9.77669 21.1504 9.6985 21.4082 9.55201 21.6274C9.40552 21.8466 9.1973 22.0175 8.95369 22.1184C8.71009 22.2193 8.44203 22.2457 8.18341 22.1943C7.9248 22.1428 7.68725 22.0159 7.5008 21.8294C7.31435 21.643 7.18738 21.4054 7.13594 21.1468C7.0845 20.8882 7.1109 20.6201 7.2118 20.3765C7.31271 20.1329 7.48359 19.9247 7.70283 19.7782C7.92207 19.6317 8.17983 19.5535 8.44351 19.5535C8.79709 19.5535 9.13619 19.694 9.38621 19.944C9.63623 20.194 9.77669 20.5331 9.77669 20.8867ZM20.4422 20.8867C20.4422 21.1504 20.364 21.4082 20.2175 21.6274C20.071 21.8466 19.8628 22.0175 19.6192 22.1184C19.3756 22.2193 19.1075 22.2457 18.8489 22.1943C18.5903 22.1428 18.3527 22.0159 18.1663 21.8294C17.9798 21.643 17.8529 21.4054 17.8014 21.1468C17.75 20.8882 17.7764 20.6201 17.8773 20.3765C17.9782 20.1329 18.1491 19.9247 18.3683 19.7782C18.5876 19.6317 18.8453 19.5535 19.109 19.5535C19.4626 19.5535 19.8017 19.694 20.0517 19.944C20.3017 20.194 20.4422 20.5331 20.4422 20.8867ZM20.8866 12.602C20.8493 12.8074 20.7409 12.9931 20.5804 13.1265C20.4199 13.26 20.2176 13.3327 20.0089 13.3319H6.80147L5.50939 6.22157H22.0431L20.8866 12.602Z" fill="#2A2C2F"/>
</svg>
