<svg width="26" height="20" viewBox="0 0 26 20" fill="none" xmlns="http://www.w3.org/2000/svg">
<path d="M2 1V19C2 19.2652 1.89464 19.5196 1.70711 19.7071C1.51957 19.8946 1.26522 20 1 20C0.734784 20 0.48043 19.8946 0.292893 19.7071C0.105357 19.5196 0 19.2652 0 19V1C0 0.734784 0.105357 0.48043 0.292893 0.292893C0.48043 0.105357 0.734784 0 1 0C1.26522 0 1.51957 0.105357 1.70711 0.292893C1.89464 0.48043 2 0.734784 2 1ZM12.5 7.8125L10 8.625V6C10 5.73478 9.89464 5.48043 9.70711 5.29289C9.51957 5.10536 9.26522 5 9 5C8.73478 5 8.48043 5.10536 8.29289 5.29289C8.10536 5.48043 8 5.73478 8 6V8.625L5.5 7.8125C5.24771 7.72962 4.97284 7.75036 4.73584 7.87014C4.49884 7.98993 4.31913 8.19896 4.23625 8.45125C4.15337 8.70354 4.1741 8.97841 4.29389 9.21541C4.41368 9.45241 4.62271 9.63212 4.875 9.715L7.375 10.5263L5.8325 12.6513C5.75098 12.7572 5.69153 12.8783 5.65764 13.0076C5.62376 13.1369 5.61613 13.2717 5.63522 13.404C5.65431 13.5363 5.69972 13.6634 5.76877 13.7778C5.83782 13.8922 5.92911 13.9917 6.03725 14.0702C6.14538 14.1488 6.26816 14.2048 6.39834 14.2351C6.52851 14.2654 6.66344 14.2693 6.79514 14.2466C6.92685 14.2238 7.05266 14.1749 7.16513 14.1027C7.27761 14.0305 7.37447 13.9365 7.45 13.8263L8.9925 11.7013L10.535 13.8263C10.6105 13.9365 10.7074 14.0305 10.8199 14.1027C10.9323 14.1749 11.0582 14.2238 11.1899 14.2466C11.3216 14.2693 11.4565 14.2654 11.5867 14.2351C11.7168 14.2048 11.8396 14.1488 11.9478 14.0702C12.0559 13.9917 12.1472 13.8922 12.2162 13.7778C12.2853 13.6634 12.3307 13.5363 12.3498 13.404C12.3689 13.2717 12.3612 13.1369 12.3274 13.0076C12.2935 12.8783 12.234 12.7572 12.1525 12.6513L10.61 10.5263L13.11 9.715C13.3511 9.6253 13.5484 9.44612 13.6609 9.21469C13.7733 8.98327 13.7922 8.71742 13.7136 8.47242C13.6351 8.22742 13.4651 8.02212 13.2391 7.89921C13.013 7.77631 12.7483 7.74525 12.5 7.8125ZM25.75 8.455C25.668 8.20501 25.4909 7.99739 25.2569 7.87712C25.0229 7.75686 24.751 7.73364 24.5 7.8125L22 8.625V6C22 5.73478 21.8946 5.48043 21.7071 5.29289C21.5196 5.10536 21.2652 5 21 5C20.7348 5 20.4804 5.10536 20.2929 5.29289C20.1054 5.48043 20 5.73478 20 6V8.625L17.5 7.81375C17.3751 7.77312 17.2434 7.7575 17.1124 7.76777C16.9815 7.77804 16.8538 7.814 16.7368 7.8736C16.6197 7.93321 16.5155 8.01528 16.4302 8.11515C16.3448 8.21501 16.28 8.3307 16.2394 8.45562C16.1987 8.58054 16.1831 8.71224 16.1934 8.8432C16.2037 8.97416 16.2396 9.10181 16.2992 9.21887C16.3588 9.33593 16.4409 9.44011 16.5408 9.52545C16.6406 9.61079 16.7563 9.67562 16.8813 9.71625L19.3813 10.5275L17.8388 12.6525C17.7572 12.7584 17.6978 12.8796 17.6639 13.0089C17.63 13.1382 17.6224 13.2729 17.6415 13.4052C17.6606 13.5375 17.706 13.6646 17.775 13.7791C17.8441 13.8935 17.9354 13.9929 18.0435 14.0715C18.1516 14.15 18.2744 14.2061 18.4046 14.2364C18.5348 14.2667 18.6697 14.2706 18.8014 14.2478C18.9331 14.2251 19.0589 14.1762 19.1714 14.104C19.2839 14.0318 19.3807 13.9378 19.4562 13.8275L20.9988 11.7025L22.5413 13.8275C22.6168 13.9378 22.7136 14.0318 22.8261 14.104C22.9386 14.1762 23.0644 14.2251 23.1961 14.2478C23.3278 14.2706 23.4627 14.2667 23.5929 14.2364C23.7231 14.2061 23.8459 14.15 23.954 14.0715C24.0621 13.9929 24.1534 13.8935 24.2225 13.7791C24.2915 13.6646 24.3369 13.5375 24.356 13.4052C24.3751 13.2729 24.3675 13.1382 24.3336 13.0089C24.2997 12.8796 24.2403 12.7584 24.1588 12.6525L22.6162 10.5275L25.1162 9.71625C25.3672 9.63261 25.5749 9.45292 25.6936 9.21653C25.8124 8.98013 25.8327 8.7063 25.75 8.455Z" fill="#FFD369"/>
</svg>
