<svg width="26" height="24" viewBox="0 0 26 24" fill="none" xmlns="http://www.w3.org/2000/svg">
<g filter="url(#filter0_d_483_109)">
<path d="M23.6571 17.5802L14.2879 1.30929C14.0538 0.910658 13.7196 0.580132 13.3183 0.350475C12.9171 0.120817 12.4628 0 12.0005 0C11.5382 0 11.084 0.120817 10.6827 0.350475C10.2815 0.580132 9.94728 0.910658 9.71315 1.30929L0.343989 17.5802C0.118718 17.9658 0 18.4043 0 18.8509C0 19.2974 0.118718 19.736 0.343989 20.1215C0.575117 20.5226 0.908785 20.8549 1.31075 21.0844C1.71272 21.3139 2.16852 21.4324 2.63137 21.4275H21.3697C21.8322 21.432 22.2875 21.3134 22.6891 21.0839C23.0907 20.8544 23.424 20.5223 23.6549 20.1215C23.8805 19.7362 23.9996 19.2977 24 18.8512C24.0004 18.4046 23.882 17.966 23.6571 17.5802ZM22.1711 19.2634C22.0894 19.4027 21.9721 19.5178 21.8313 19.5969C21.6905 19.6759 21.5312 19.7161 21.3697 19.7133H2.63137C2.46989 19.7161 2.31057 19.6759 2.16975 19.5969C2.02892 19.5178 1.91166 19.4027 1.82998 19.2634C1.756 19.1381 1.71697 18.9953 1.71697 18.8498C1.71697 18.7043 1.756 18.5615 1.82998 18.4363L11.1991 2.16532C11.2825 2.02665 11.4003 1.91191 11.5411 1.83225C11.6819 1.75259 11.8409 1.71073 12.0027 1.71073C12.1645 1.71073 12.3235 1.75259 12.4643 1.83225C12.6051 1.91191 12.7229 2.02665 12.8062 2.16532L22.1754 18.4363C22.2487 18.5619 22.287 18.7049 22.2862 18.8504C22.2855 18.9959 22.2457 19.1385 22.1711 19.2634ZM11.1434 12.8566V8.57106C11.1434 8.34374 11.2337 8.12574 11.3945 7.965C11.5552 7.80426 11.7732 7.71396 12.0005 7.71396C12.2279 7.71396 12.4459 7.80426 12.6066 7.965C12.7673 8.12574 12.8576 8.34374 12.8576 8.57106V12.8566C12.8576 13.0839 12.7673 13.3019 12.6066 13.4626C12.4459 13.6234 12.2279 13.7137 12.0005 13.7137C11.7732 13.7137 11.5552 13.6234 11.3945 13.4626C11.2337 13.3019 11.1434 13.0839 11.1434 12.8566ZM13.2862 16.7135C13.2862 16.9678 13.2108 17.2163 13.0695 17.4278C12.9282 17.6392 12.7275 17.804 12.4925 17.9013C12.2576 17.9986 11.9991 18.0241 11.7497 17.9744C11.5003 17.9248 11.2712 17.8024 11.0914 17.6226C10.9116 17.4428 10.7892 17.2137 10.7396 16.9643C10.69 16.7149 10.7154 16.4564 10.8128 16.2215C10.9101 15.9866 11.0748 15.7858 11.2863 15.6445C11.4977 15.5033 11.7463 15.4279 12.0005 15.4279C12.3415 15.4279 12.6685 15.5633 12.9096 15.8044C13.1507 16.0455 13.2862 16.3725 13.2862 16.7135Z" fill="#FFD369"/>
</g>
<defs>
<filter id="filter0_d_483_109" x="0" y="0" width="26" height="23.4277" filterUnits="userSpaceOnUse" color-interpolation-filters="sRGB">
<feFlood flood-opacity="0" result="BackgroundImageFix"/>
<feColorMatrix in="SourceAlpha" type="matrix" values="0 0 0 0 0 0 0 0 0 0 0 0 0 0 0 0 0 0 127 0" result="hardAlpha"/>
<feOffset dx="1" dy="1"/>
<feGaussianBlur stdDeviation="0.5"/>
<feComposite in2="hardAlpha" operator="out"/>
<feColorMatrix type="matrix" values="0 0 0 0 0 0 0 0 0 0 0 0 0 0 0 0 0 0 0.75 0"/>
<feBlend mode="normal" in2="BackgroundImageFix" result="effect1_dropShadow_483_109"/>
<feBlend mode="normal" in="SourceGraphic" in2="effect1_dropShadow_483_109" result="shape"/>
</filter>
</defs>
</svg>
