<svg width="26" height="26" viewBox="0 0 26 26" fill="none" xmlns="http://www.w3.org/2000/svg">
<g filter="url(#filter0_d_500_106)">
<path d="M17.5856 13.5787L14.5856 12.0787C14.4675 12.0199 14.336 11.9933 14.2043 12.0015C14.0726 12.0097 13.9455 12.0525 13.8356 12.1256L12.4584 13.0444C11.8262 12.6968 11.306 12.1766 10.9584 11.5444L11.8772 10.1672C11.9503 10.0573 11.9931 9.93016 12.0013 9.79848C12.0096 9.6668 11.9829 9.53528 11.9241 9.41719L10.4241 6.41719C10.3619 6.29163 10.2658 6.186 10.1466 6.11226C10.0275 6.03853 9.8901 5.99964 9.74999 6C8.75543 6 7.8016 6.39509 7.09834 7.09835C6.39508 7.80161 5.99999 8.75544 5.99999 9.75C6.00247 11.9373 6.87246 14.0343 8.4191 15.5809C9.96574 17.1275 12.0627 17.9975 14.25 18C14.7424 18 15.2301 17.903 15.6851 17.7145C16.14 17.5261 16.5534 17.2499 16.9016 16.9017C17.2499 16.5534 17.5261 16.14 17.7145 15.6851C17.903 15.2301 18 14.7425 18 14.25C18.0001 14.1107 17.9614 13.9741 17.8882 13.8555C17.815 13.7369 17.7102 13.6411 17.5856 13.5787ZM14.25 16.5C12.4604 16.498 10.7447 15.7862 9.47921 14.5208C8.21377 13.2553 7.50198 11.5396 7.49999 9.75C7.49985 9.2298 7.67996 8.72562 8.00968 8.32326C8.33939 7.9209 8.79834 7.64521 9.30843 7.54313L10.3847 9.69937L9.46874 11.0625C9.4003 11.1652 9.35824 11.2831 9.3463 11.406C9.33437 11.5288 9.35291 11.6526 9.4003 11.7666C9.93692 13.0419 10.9515 14.0565 12.2269 14.5931C12.3411 14.6426 12.4659 14.6629 12.59 14.6521C12.7141 14.6413 12.8335 14.5998 12.9375 14.5312L14.3072 13.6181L16.4634 14.6944C16.3605 15.205 16.0837 15.6642 15.68 15.9935C15.2763 16.3228 14.7709 16.5018 14.25 16.5ZM12 2.25C10.3167 2.24963 8.66195 2.68508 7.19685 3.51396C5.73176 4.34285 4.50622 5.53692 3.63953 6.97997C2.77283 8.42301 2.29451 10.0659 2.25111 11.7486C2.20771 13.4314 2.60071 15.0967 3.39187 16.5825L2.3278 19.7747C2.23967 20.039 2.22687 20.3226 2.29086 20.5938C2.35486 20.8649 2.4931 21.1129 2.6901 21.3099C2.88711 21.5069 3.13508 21.6451 3.40624 21.7091C3.67739 21.7731 3.96101 21.7603 4.2253 21.6722L7.41749 20.6081C8.72509 21.3036 10.1739 21.6921 11.6541 21.744C13.1342 21.7959 14.6067 21.51 15.9599 20.9079C17.313 20.3057 18.5112 19.4033 19.4634 18.269C20.4157 17.1346 21.097 15.7983 21.4557 14.3613C21.8144 12.9244 21.841 11.4246 21.5336 9.97578C21.2261 8.527 20.5926 7.16731 19.6811 5.99992C18.7697 4.83253 17.6043 3.88811 16.2734 3.23836C14.9425 2.58861 13.481 2.25061 12 2.25ZM12 20.25C10.5497 20.251 9.12477 19.8691 7.86937 19.1428C7.77745 19.0895 7.67526 19.0563 7.56955 19.0455C7.46385 19.0347 7.35706 19.0464 7.25624 19.08L3.74999 20.25L4.91905 16.7438C4.95275 16.643 4.96466 16.5362 4.954 16.4305C4.94333 16.3248 4.91033 16.2226 4.85718 16.1306C3.94778 14.5584 3.58266 12.7299 3.81846 10.929C4.05426 9.12801 4.8778 7.4552 6.16132 6.17006C7.44485 4.88491 9.11661 4.05925 10.9173 3.82118C12.7179 3.5831 14.5468 3.94591 16.1202 4.85333C17.6937 5.76074 18.9236 7.16204 19.6194 8.83983C20.3151 10.5176 20.4377 12.3781 19.9682 14.1327C19.4987 15.8873 18.4632 17.4379 17.0225 18.5439C15.5818 19.65 13.8163 20.2497 12 20.25Z" fill="#58CE78"/>
</g>
<defs>
<filter id="filter0_d_500_106" x="0" y="0" width="28" height="28" filterUnits="userSpaceOnUse" color-interpolation-filters="sRGB">
<feFlood flood-opacity="0" result="BackgroundImageFix"/>
<feColorMatrix in="SourceAlpha" type="matrix" values="0 0 0 0 0 0 0 0 0 0 0 0 0 0 0 0 0 0 127 0" result="hardAlpha"/>
<feOffset dx="2" dy="2"/>
<feGaussianBlur stdDeviation="1"/>
<feComposite in2="hardAlpha" operator="out"/>
<feColorMatrix type="matrix" values="0 0 0 0 0 0 0 0 0 0 0 0 0 0 0 0 0 0 0.75 0"/>
<feBlend mode="normal" in2="BackgroundImageFix" result="effect1_dropShadow_500_106"/>
<feBlend mode="normal" in="SourceGraphic" in2="effect1_dropShadow_500_106" result="shape"/>
</filter>
</defs>
</svg>
